<svg width="120" height="100" viewBox="0 0 200 170" fill="none" xmlns="http://www.w3.org/2000/svg">
                                <path d="M123.659 101.877C119.994 101.877 116.626 99.4588 115.583 95.7577L109.725 75.0007C108.559 70.869 110.696 66.5244 114.681 64.9257L133.299 57.4627C137.603 55.7363 142.491 57.8276 144.217 62.1318C145.943 66.436 143.852 71.3251 139.548 73.0498L127.936 77.7045L131.744 91.197C133.004 95.6593 130.406 100.3 125.944 101.558C125.181 101.775 124.414 101.877 123.659 101.877Z" fill="#007348" />
                                <path d="M69.4295 101.877C65.7649 101.877 62.3971 99.4588 61.3534 95.7577L55.4953 75.0007C54.3294 70.869 56.4677 66.5244 60.4518 64.9257L79.07 57.4627C83.3736 55.7363 88.2622 57.8276 89.9875 62.1318C91.7134 66.436 89.6226 71.3251 85.3184 73.0498L73.7077 77.7045L77.5149 91.197C78.7748 95.6593 76.1777 100.3 71.7148 101.558C70.9525 101.775 70.1846 101.877 69.4295 101.877Z" fill="#007348" />
                                <path d="M200 87.8813H0V108.992H142.921L161.927 127.998C162.677 128.748 163.66 129.122 164.644 129.122C165.627 129.122 166.611 128.748 167.361 127.998C168.862 126.497 168.862 124.063 167.361 122.563L153.789 108.992H200V87.8813Z" fill="#65513C" />
                                <path d="M161.628 116.829C155.952 122.504 155.952 131.703 161.628 137.379C167.302 143.055 176.502 143.055 182.177 137.379L161.628 116.829Z" fill="#00945E" />
                                <path d="M168.942 19.7548C160.444 9.39845 148.089 2.32576 134.071 0.736419H134.069C133.824 0.700486 133.575 0.68335 133.32 0.68335C130.385 0.68335 128.005 3.0621 128.005 5.99699V22.2773C119.368 18.1185 109.685 15.7884 99.4571 15.7884H81.5078C45.1173 15.7884 15.6169 45.2882 15.6169 81.6787V126.285C15.6169 150.013 34.9206 169.317 58.649 169.317C78.5182 169.317 94.6841 153.152 94.6841 133.282C94.6841 116.498 81.0296 102.844 64.2468 102.844C49.9328 102.844 38.2878 114.489 38.2878 128.803C38.2878 141.142 48.3258 151.18 60.664 151.18C65.1081 151.18 68.7108 147.577 68.7108 143.133C68.7108 138.689 65.1075 135.086 60.664 135.086C57.1995 135.086 54.3802 132.267 54.3802 128.803C54.3802 123.363 58.806 118.937 64.2462 118.937C72.1559 118.937 78.5901 125.371 78.5901 133.281C78.5901 144.277 69.6439 153.222 58.6485 153.222C43.7944 153.222 31.7093 141.137 31.7093 126.284V81.6776H166.818C183.94 81.6776 197.82 67.7965 197.82 50.6748C197.821 34.2701 185.072 20.8478 168.942 19.7548Z" fill="#05CE7C" />
                                <path d="M111.601 101.877C107.937 101.877 104.568 99.4588 103.525 95.7577L97.6672 75.0007C96.5013 70.869 98.6396 66.5244 102.623 64.9257L121.241 57.4627C125.546 55.7363 130.434 57.8276 132.159 62.1318C133.885 66.436 131.795 71.3251 127.49 73.0498L115.88 77.7045L119.687 91.197C120.947 95.6593 118.35 100.3 113.886 101.558C113.124 101.775 112.356 101.877 111.601 101.877Z" fill="#00945E" />
                                <path d="M57.372 101.877C53.7074 101.877 50.3397 99.4588 49.2954 95.7577L43.4378 75.0007C42.2714 70.869 44.4096 66.5244 48.3938 64.9257L67.0114 57.4627C71.315 55.7363 76.2041 57.8276 77.9295 62.1318C79.6548 66.436 77.5646 71.3251 73.2604 73.0498L61.6497 77.7045L65.4563 91.197C66.7162 95.6593 64.1191 100.3 59.6562 101.558C58.8944 101.775 58.1266 101.877 57.372 101.877Z" fill="#00945E" />
                                <path d="M160.809 50.9567C166.084 50.9567 170.359 46.6811 170.359 41.4069C170.359 36.1327 166.084 31.8571 160.809 31.8571C155.535 31.8571 151.26 36.1327 151.26 41.4069C151.26 46.6811 155.535 50.9567 160.809 50.9567Z" fill="#00945E" />
                                <path d="M157.801 41.5866C159.33 41.5866 160.571 40.3463 160.571 38.8164C160.571 37.2865 159.33 36.0463 157.801 36.0463C156.271 36.0463 155.03 37.2865 155.03 38.8164C155.03 40.3463 156.271 41.5866 157.801 41.5866Z" fill="#333E48" />
                                <path d="M64.2805 34.9367C65.1308 34.9367 65.8201 34.2474 65.8201 33.3971C65.8201 32.5468 65.1308 31.8575 64.2805 31.8575C63.4303 31.8575 62.741 32.5468 62.741 33.3971C62.741 34.2474 63.4303 34.9367 64.2805 34.9367Z" fill="#28B07F" />
                                <path d="M68.2906 23.8988C69.1412 23.8988 69.8308 23.2092 69.8308 22.3586C69.8308 21.508 69.1412 20.8185 68.2906 20.8185C67.44 20.8185 66.7505 21.508 66.7505 22.3586C66.7505 23.2092 67.44 23.8988 68.2906 23.8988Z" fill="#28B07F" />
                                <path d="M47.2649 36.4769C48.1152 36.4769 48.8045 35.7876 48.8045 34.9373C48.8045 34.087 48.1152 33.3977 47.2649 33.3977C46.4146 33.3977 45.7253 34.087 45.7253 34.9373C45.7253 35.7876 46.4146 36.4769 47.2649 36.4769Z" fill="#28B07F" />
                                <path d="M55.6262 28.5186C55.6262 27.6673 54.9369 26.9779 54.0866 26.9779C53.2364 26.9779 52.5465 27.6673 52.5465 28.5186C52.5465 29.3677 53.2364 30.0576 54.0866 30.0576C54.9369 30.0576 55.6262 29.3677 55.6262 28.5186Z" fill="#28B07F" />
                                <path d="M76.9952 26.9774C77.8454 26.9774 78.5347 26.2881 78.5347 25.4378C78.5347 24.5875 77.8454 23.8982 76.9952 23.8982C76.1449 23.8982 75.4556 24.5875 75.4556 25.4378C75.4556 26.2881 76.1449 26.9774 76.9952 26.9774Z" fill="#28B07F" />
                                <path d="M114.405 23.8981C115.255 23.8981 115.945 23.2088 115.945 22.3586C115.945 21.5083 115.255 20.819 114.405 20.819C113.555 20.819 112.866 21.5083 112.866 22.3586C112.866 23.2088 113.555 23.8981 114.405 23.8981Z" fill="#28B07F" />
                                <path d="M110.947 34.9356C111.798 34.9356 112.487 34.2463 112.487 33.396C112.487 32.5457 111.798 31.8564 110.947 31.8564C110.097 31.8564 109.408 32.5457 109.408 33.396C109.408 34.2463 110.097 34.9356 110.947 34.9356Z" fill="#28B07F" />
                                <path d="M81.6145 33.3966C82.4648 33.3966 83.1541 32.7073 83.1541 31.857C83.1541 31.0067 82.4648 30.3174 81.6145 30.3174C80.7642 30.3174 80.075 31.0067 80.075 31.857C80.075 32.7073 80.7642 33.3966 81.6145 33.3966Z" fill="#28B07F" />
                                <path d="M90.4822 23.1983C91.3325 23.1983 92.0218 22.509 92.0218 21.6587C92.0218 20.8084 91.3325 20.1191 90.4822 20.1191C89.6319 20.1191 88.9426 20.8084 88.9426 21.6587C88.9426 22.509 89.6319 23.1983 90.4822 23.1983Z" fill="#28B07F" />
                                <path d="M104.252 23.8981C104.252 23.0473 103.563 22.3574 102.713 22.3574C101.862 22.3574 101.173 23.0473 101.173 23.8981C101.173 24.7472 101.862 25.4377 102.713 25.4377C103.562 25.4377 104.252 24.7472 104.252 23.8981Z" fill="#28B07F" />
                                <path d="M97.3504 33.3966C98.2007 33.3966 98.89 32.7073 98.89 31.857C98.89 31.0067 98.2007 30.3174 97.3504 30.3174C96.5001 30.3174 95.8108 31.0067 95.8108 31.857C95.8108 32.7073 96.5001 33.3966 97.3504 33.3966Z" fill="#28B07F" />
                            </svg>